<?xml version="1.0" encoding="UTF-8"?>
<svg xmlns="http://www.w3.org/2000/svg" width="520" height="170" viewBox="0 0 520 170" role="img" font-family="ui-monospace, 'Cascadia Mono', Menlo, Consolas, monospace">
  <title>Now Playing on Spotify</title>
  <defs><clipPath id="label"><circle cx="85" cy="85" r="30"/></clipPath></defs>

  <rect x="0.5" y="0.5" width="519" height="169" fill="#fff" stroke="#000"/>

  <g>
    <animateTransform attributeName="transform" type="rotate" from="0 85 85" to="360 85 85" dur="15s" repeatCount="indefinite"/>
    <circle cx="85" cy="85" r="68" fill="#000"/>
    <circle cx="85" cy="85" r="62" fill="none" stroke="#fff" stroke-opacity="0.10"/>
    <circle cx="85" cy="85" r="55" fill="none" stroke="#fff" stroke-opacity="0.08"/>
    <circle cx="85" cy="85" r="48" fill="none" stroke="#fff" stroke-opacity="0.12"/>
    <circle cx="85" cy="85" r="41" fill="none" stroke="#fff" stroke-opacity="0.06"/>
    <path d="M 85 17 A 68 68 0 0 1 146 49" fill="none" stroke="#fff" stroke-opacity="0.22" stroke-width="2.5"/>
    <path d="M 85 153 A 68 68 0 0 1 24 121" fill="none" stroke="#fff" stroke-opacity="0.10" stroke-width="2"/>
    <circle cx="85" cy="85" r="30" fill="#fff" opacity="0.92"/>
    <circle cx="85" cy="85" r="3.5" fill="#fff"/>
    <circle cx="85" cy="85" r="1.4" fill="#000"/>
  </g>

  <rect x="178" y="34" width="3" height="11" fill="#000" opacity="0.65"/>
       <rect x="184" y="34" width="3" height="11" fill="#000" opacity="0.65"/>
  <text x="216" y="45" font-size="11" letter-spacing="3" fill="#000">STANDBY</text>

  <text x="178" y="82"  font-size="19" font-weight="700" fill="#000">Warming up</text>
  <text x="178" y="104" font-size="13" fill="#333">trigger the workflow once</text>
  <text x="178" y="123" font-size="11" fill="#777">Actions → Spotify — Now Playing</text>

  <text x="178" y="152" font-size="9" fill="#999">spotify · refreshed by GitHub Actions</text>
</svg>